<?xml version="1.0" encoding="UTF-8" standalone="no"?>
<svg width="266px" height="174px" viewBox="0 0 266 174" version="1.1" xmlns="http://www.w3.org/2000/svg" xmlns:xlink="http://www.w3.org/1999/xlink">
    <!-- Generator: Sketch 41.2 (35397) - http://www.bohemiancoding.com/sketch -->
    <title>Group 2</title>
    <desc>Created with Sketch.</desc>
    <defs>
        <path d="M60.8597912,102.651563 C59.2803721,96.2165825 63.3752272,91 69.9971595,91 L272.491122,91 C279.11697,91 281.873941,95.6952661 278.653335,101.479366 L236.870103,176.520634 C233.647551,182.308228 225.671275,187 219.040124,187 L93.5575324,187 C86.9328589,187 80.2831369,181.787529 78.7027088,175.348437 L60.8597912,102.651563 Z" id="path-1"></path>
        <mask id="mask-2" maskContentUnits="userSpaceOnUse" maskUnits="objectBoundingBox" x="0" y="0" width="219.47816" height="96" fill="white">
            <use xlink:href="#path-1"></use>
        </mask>
    </defs>
    <g id="Page-1" stroke="none" stroke-width="1" fill="none" fill-rule="evenodd">
        <g id="Group-2" transform="translate(-14.000000, -63.000000)">
            <rect id="Rectangle-3" x="0" y="0" width="300" height="300"></rect>
            <use id="Rectangle-2" stroke="#5B5B5B" mask="url(#mask-2)" stroke-width="24" xlink:href="#path-1"></use>
            <path d="M20.5,69 L52.5,69" id="Line" stroke="#5B5B5B" stroke-width="12" stroke-linecap="round"></path>
            <path d="M66.5,99.5 L53.5,69.5" id="Line" stroke="#5B5B5B" stroke-width="12" stroke-linecap="round"></path>
            <path d="M88.5,180.5 L75.5,202.5" id="Line" stroke="#5B5B5B" stroke-width="12" stroke-linecap="round"></path>
            <path d="M247.5,203 L75.5,203" id="Line" stroke="#5B5B5B" stroke-width="12" stroke-linecap="round"></path>
            <ellipse id="Oval" stroke="#5B5B5B" fill="#5B5B5B" cx="96.5" cy="225.5" rx="10.5" ry="10.5"></ellipse>
            <ellipse id="Oval-Copy" stroke="#5B5B5B" fill="#5B5B5B" cx="225.5" cy="225.5" rx="10.5" ry="10.5"></ellipse>
        </g>
    </g>
</svg>