<?xml version="1.0" encoding="UTF-8" standalone="no"?>
<svg width="354px" height="287px" viewBox="0 0 354 287" version="1.1" xmlns="http://www.w3.org/2000/svg" xmlns:xlink="http://www.w3.org/1999/xlink">
    <!-- Generator: Sketch 42 (36781) - http://www.bohemiancoding.com/sketch -->
    <title>Group 3</title>
    <desc>Created with Sketch.</desc>
    <defs></defs>
    <g id="Page-1" stroke="none" stroke-width="1" fill="none" fill-rule="evenodd">
        <g id="Group-3" fill="#FFFFFF">
            <path d="M143.5,287 C64.2471384,287 0,222.752862 0,143.5 C0,64.2471384 64.2471384,0 143.5,0 C222.752862,0 287,64.2471384 287,143.5 C287,222.752862 222.752862,287 143.5,287 Z M143.5,278 C217.782299,278 278,217.782299 278,143.5 C278,69.2177012 217.782299,9 143.5,9 C69.2177012,9 9,69.2177012 9,143.5 C9,217.782299 69.2177012,278 143.5,278 Z" id="Combined-Shape"></path>
            <rect id="Rectangle-4" transform="translate(305.330703, 250.433702) rotate(34.000000) translate(-305.330703, -250.433702) " x="248.330703" y="244.933702" width="114" height="11" rx="5"></rect>
        </g>
    </g>
</svg>